<svg xmlns="http://www.w3.org/2000/svg" width="128" height="128" viewBox="0 0 128 128"><path d="m73.2 44a29.2 29.2 0 0 0-38.9 14.2l-9.9 21.2A29.3 29.3 0 1 0 77.4 104.1L87.3 82.9A29.2 29.2 0 0 0 73.2 44Zm-5.9 12.7a15 15 0 0 1 7.6 19.8L64.5 98.5A15 15 0 0 1 44.5 105.5 15 15 0 0 1 36.9 85.7L47.2 63.6a15 15 0 0 1 20-6.9z" fill="#49c1c9"/><path d="m88.8 10.4a29.2 29.2 0 0 0-38.9 14.2l-9.9 21.2A29.3 29.3 0 0 0 69.8 87.2l5-10.7a14.2 14.2 0 0 0 1.3-6.4 15.2 15.2 0 0 1-15.9 1.8 15 15 0 0 1-7.6-19.8L62.8 30A15.2 15.2 0 0 1 90.4 42.9l-5.3 11.4a29.1 29.1 0 0 1 4.3 22.1 29.5 29.5 0 0 0 3.6-5.9L103 49.3A29.2 29.2 0 0 0 88.8 10.4Z" fill="#0e63ba"/></svg>